name Walk3.mot
datacolumns 19
datarows 22
range 1.01500000 1.12000000
endheader

                time	   L_ground_force_vx	   L_ground_force_vy	   L_ground_force_vz	   L_ground_force_px	   L_ground_force_py	   L_ground_force_pz	   R_ground_force_vx	   R_ground_force_vy	   R_ground_force_vz	   R_ground_force_px	   R_ground_force_py	   R_ground_force_pz	   L_ground_torque_x	   L_ground_torque_y	   L_ground_torque_z	   R_ground_torque_x	   R_ground_torque_y	   R_ground_torque_z	
          1.01500000	         43.99215312	        496.70304451	         38.71819712	         -0.35888281	          0.00000000	         -0.04973489	         -0.08292794	          0.45461713	          0.00962620	          0.00000922	          0.00000000	         -0.00001853	          0.00000000	         -0.15532448	          0.00000000	          0.00000000	          0.01422430	          0.00000000	
          1.02000000	         48.36187008	        511.10358057	         39.81039042	         -0.35844379	          0.00000000	         -0.04949660	         -0.07751089	          0.05070438	         -0.03273320	         -0.00022413	          0.00000000	         -0.00012420	          0.00000000	         -0.20027866	          0.00000000	          0.00000000	          0.01626817	          0.00000000	
          1.02500000	         52.93459455	        525.07540995	         40.67530269	         -0.35796834	          0.00000000	         -0.04920332	         -0.05950439	         -0.58540225	         -0.09475068	         -0.00056038	          0.00000000	         -0.00027366	          0.00000000	         -0.25191131	          0.00000000	          0.00000000	          0.01744902	          0.00000000	
          1.03000000	         57.70106667	        538.45012119	         41.28264929	         -0.35745424	          0.00000000	         -0.04885135	         -0.02408686	         -1.50513748	         -0.17977406	         -0.00101561	          0.00000000	         -0.00047297	          0.00000000	         -0.31000933	          0.00000000	          0.00000000	          0.01713845	          0.00000000	
          1.03500000	         62.64423158	        551.05952987	         41.60901490	         -0.35689942	          0.00000000	         -0.04844062	          0.03411310	         -2.75372822	         -0.29018660	         -0.00160023	          0.00000000	         -0.00072545	          0.00000000	         -0.37392155	          0.00000000	          0.00000000	          0.01454051	          0.00000000	
          1.04000000	         67.73568183	        562.73131634	         41.63760869	         -0.35630216	          0.00000000	         -0.04797239	          0.12066184	         -4.36114328	         -0.42657352	         -0.00231451	          0.00000000	         -0.00102968	          0.00000000	         -0.44278149	          0.00000000	          0.00000000	          0.00869607	          0.00000000	
          1.04500000	         72.93526885	        573.28653740	         41.35655403	         -0.35565992	          0.00000000	         -0.04744682	          0.24074320	         -6.32986227	         -0.58664402	         -0.00314292	          0.00000000	         -0.00137711	          0.00000000	         -0.51580929	          0.00000000	          0.00000000	         -0.00149008	          0.00000000	
          1.05000000	         78.19227583	        582.53711055	         40.75766395	         -0.35497199	          0.00000000	         -0.04686360	          0.39830524	         -8.61919297	         -0.76390502	         -0.00404710	          0.00000000	         -0.00174905	          0.00000000	         -0.59217125	          0.00000000	          0.00000000	         -0.01719041	          0.00000000	
          1.05500000	         83.44835242	        590.28754731	         39.83503045	         -0.35424081	          0.00000000	         -0.04622337	          0.59488206	        -11.12614028	         -0.94611130	         -0.00495794	          0.00000000	         -0.00211333	          0.00000000	         -0.67084751	          0.00000000	          0.00000000	         -0.03955311	          0.00000000	
          1.06000000	         88.64032286	        596.34235119	         38.58548869	         -0.35347170	          0.00000000	         -0.04552746	          0.82805430	        -13.66325753	         -1.11355799	         -0.00576684	          0.00000000	         -0.00242076	          0.00000000	         -0.75098652	          0.00000000	          0.00000000	         -0.06954704	          0.00000000	
          1.06500000	         93.70320468	        600.50966425	         37.00930444	         -0.35267340	          0.00000000	         -0.04477961	          1.08953602	        -15.93452338	         -1.23733799	         -0.00631701	          0.00000000	         -0.00260160	          0.00000000	         -0.83180900	          0.00000000	          0.00000000	         -0.10774187	          0.00000000	
          1.07000000	         98.57185547	        602.60083984	         35.11097841	         -0.35185884	          0.00000000	         -0.04398619	          1.36291493	        -17.51111508	         -1.27775948	         -0.00639586	          0.00000000	         -0.00256276	          0.00000000	         -0.91259762	          0.00000000	          0.00000000	         -0.15401452	          0.00000000	
          1.07500000	        103.18213283	        602.43482603	         32.90113145	         -0.35104462	          0.00000000	         -0.04315495	          1.62113076	        -17.81000799	         -1.18320832	         -0.00573004	          0.00000000	         -0.00218612	          0.00000000	         -0.99274563	          0.00000000	          0.00000000	         -0.20717683	          0.00000000	
          1.08000000	        107.47008919	        599.84197267	         30.40050876	         -0.35025099	          0.00000000	         -0.04229320	          1.82385635	        -16.07962142	         -0.88984434	         -0.00398509	          0.00000000	         -0.00132920	          0.00000000	         -1.07160826	          0.00000000	          0.00000000	         -0.26452633	          0.00000000	
          1.08500000	        111.37194767	        594.66567997	         27.64187766	         -0.34950094	          0.00000000	         -0.04140803	          1.91504982	        -11.39822289	         -0.32263572	         -0.00077257	          0.00000000	          0.00017100	          0.00000000	         -1.14833321	          0.00000000	          0.00000000	         -0.32133246	          0.00000000	
          1.09000000	        114.82129449	        586.76025589	         24.67022072	         -0.34881736	          0.00000000	         -0.04050812	          1.82107564	         -2.69242404	          0.60164795	          0.00433223	          0.00000000	          0.00248930	          0.00000000	         -1.22131594	          0.00000000	          0.00000000	         -0.37028548	          0.00000000	
          1.09500000	        117.74597870	        575.98763052	         21.54086243	         -0.34821909	          0.00000000	         -0.03960302	          1.44994446	         11.21527352	          1.96875706	          0.01175828	          0.00000000	          0.00579740	          0.00000000	         -1.28819891	          0.00000000	          0.00000000	         -0.40095521	          0.00000000	
          1.10000000	        120.06213199	        562.21916450	         18.31720060	         -0.34771844	          0.00000000	         -0.03869992	          0.69239115	         31.51949676	          3.85779624	          0.02188818	          0.00000000	          0.01024100	          0.00000000	         -1.34640920	          0.00000000	          0.00000000	         -0.39933194	          0.00000000	
          1.10500000	        121.66979642	        545.34576370	         15.06539117	         -0.34731618	          0.00000000	         -0.03780319	         -0.57431338	         59.29425150	          6.32775101	          0.03498512	          0.00000000	          0.01590726	          0.00000000	         -1.39306130	          0.00000000	          0.00000000	         -0.34755180	          0.00000000	
          1.11000000	        122.45125139	        525.29368829	         11.84972425	         -0.34699459	          0.00000000	         -0.03691270	         -2.47875775	         95.29299428	          9.39895897	          0.05109357	          0.00000000	          0.02278129	          0.00000000	         -1.42520543	          0.00000000	          0.00000000	         -0.22394401	          0.00000000	
          1.11500000	        122.27511094	        502.04545264	          8.72843117	         -0.34670903	          0.00000000	         -0.03602143	         -5.14280923	        139.67640133	         13.02898279	          0.06991148	          0.00000000	          0.03069096	          0.00000000	         -1.44052731	          0.00000000	          0.00000000	         -0.00357394	          0.00000000	
          1.12000000	        121.00631940	        475.66237399	          5.75247919	         -0.34637938	          0.00000000	         -0.03511507	         -8.66282426	        191.66096334	         17.08272885	          0.09063371	          0.00000000	          0.03924007	          0.00000000	         -1.43747329	          0.00000000	          0.00000000	          0.34050744	          0.00000000	
